<?xml version="1.0" encoding="utf-8"?>
<svg version="1.1" id="Layer_1" xmlns="http://www.w3.org/2000/svg" xmlns:xlink="http://www.w3.org/1999/xlink" x="0px" y="0px"
	 viewBox="0 0 280 280" style="enable-background:new 0 0 280 280;" xml:space="preserve">
<style type="text/css">
	.st0{fill:#FFFFFF;}
	.st1{fill:#3869F6;}
	.st2{fill:#3E51EE;}
	.st3{fill:#6100C9;}
	.st4{fill:#7102B8;}
	.st5{fill:#8204A7;}
	.st6{fill:#463AE6;}
	.st7{fill:#4E23DE;}
	.st8{fill:#6901C0;}
	.st9{fill:#BB0A6A;}
	.st10{fill:#7902AF;}
	.st11{fill:#A30784;}
	.st12{fill:#E50E40;}
	.st13{fill:#C40A62;}
	.st14{fill:#AB087C;}
	.st15{fill:#D40C50;}
	.st16{fill:#920595;}
</style>
<polygon class="st0" points="140,5.1 140,5 5,140 140,275 275,140 140,5.1 "/>
<polygon class="st1" points="140,223.4 140,223.3 112.2,251.1 140,278.9 167.8,251.1 140,223.4 "/>
<polygon class="st2" points="167.8,195.6 167.7,195.5 140,223.3 167.8,251.1 195.6,223.4 167.8,195.6 "/>
<polygon class="st3" points="195.6,167.8 195.5,167.7 167.7,195.5 195.6,223.4 223.4,195.6 195.6,167.8 "/>
<polygon class="st4" points="223.4,140 223.3,140 195.5,167.7 223.4,195.6 251.1,167.8 223.4,140 "/>
<polygon class="st5" points="251.1,112.3 251.1,112.2 223.3,140 251.1,167.8 278.9,140 251.1,112.3 "/>
<polygon class="st6" points="112.3,195.6 112.2,195.5 84.4,223.3 112.3,251.1 140,223.4 112.3,195.6 "/>
<polygon class="st7" points="84.5,167.8 84.4,167.7 56.6,195.5 84.5,223.4 112.3,195.6 84.5,167.8 "/>
<polygon class="st8" points="56.7,140 56.6,140 28.9,167.7 56.7,195.6 84.5,167.8 56.7,140 "/>
<polygon class="st9" points="84.5,112.3 84.4,112.2 103.9,92.8 112.3,140 84.5,112.3 "/>
<polygon class="st10" points="28.9,112.3 28.9,112.2 1.1,140 28.9,167.8 56.7,140 28.9,112.3 "/>
<polygon class="st11" points="84.5,56.7 84.5,56.7 84.4,56.6 56.6,84.4 84.5,112.3 103.9,92.8 100.3,72.5 "/>
<polygon class="st12" points="140,1.1 140,1.1 112.2,28.9 140,56.7 167.8,28.9 140,1.1 "/>
<polygon class="st11" points="56.8,84.5 56.7,84.5 28.9,112.3 44.8,128.2 68.6,128.2 84.5,112.3 56.8,84.5 "/>
<polygon class="st13" points="112.2,28.9 112.1,28.8 84.4,56.6 100.3,72.5 124.1,72.5 140,56.6 112.2,28.9 "/>
<polygon class="st11" points="195.5,112.3 195.5,112.2 176.1,92.8 167.7,140 195.5,112.3 "/>
<polygon class="st14" points="195.5,56.7 195.5,56.7 195.5,56.6 223.3,84.4 195.5,112.3 176.1,92.8 179.7,72.5 "/>
<polygon class="st15" points="167.7,28.9 167.8,28.8 195.6,56.6 179.7,72.5 155.9,72.5 140,56.6 167.7,28.9 "/>
<polygon class="st16" points="223.4,84.5 223.3,84.4 195.5,112.2 211.4,128.1 235.2,128.1 251.1,112.3 223.4,84.5 "/>
</svg>
