<?xml version="1.0" encoding="utf-8"?>
<svg version="1.1" id="Layer_1" xmlns="http://www.w3.org/2000/svg" xmlns:xlink="http://www.w3.org/1999/xlink" x="0px" y="0px"
	 viewBox="0 0 49.5 40.5" style="enable-background:new 0 0 49.5 40.5;" xml:space="preserve">
<style type="text/css">
	#wells-left, #wells-right, #handles{fill:#AFB5C5;}
</style>
<g>
	<path id="handles" class="st0" d="M9,13.5h13.5V0H9V13.5z M13.5,4.5H18V9h-4.5V4.5z M9,40.5h13.5V27H9V40.5z M13.5,31.5H18V36h-4.5
		V31.5z M27,13.5V27h13.5V13.5H27z M36,22.5h-4.5V18H36V22.5z"/>
	<path id="wells-left" class="st0" d="M9,9H0V4.5h9V9z M0,36h9v-4.5H0V36z M0,18v4.5h27V18H0z"/>
	<path id="wells-right" class="st0" d="M49.5,4.5V9h-27V4.5H49.5z M22.5,36h27v-4.5h-27V36z M40.5,22.5h9V18h-9V22.5z"/>
</g>
</svg>
