<?xml version="1.0" encoding="utf-8"?>
<svg version="1.1" id="Layer_1" xmlns="http://www.w3.org/2000/svg" xmlns:xlink="http://www.w3.org/1999/xlink" x="0px" y="0px"
	 viewBox="0 0 49.5 40.5" style="enable-background:new 0 0 49.5 40.5;" xml:space="preserve">
<style type="text/css">
	#frame, #grid{fill:#AFB5C5;}
	#spots{fill:none;}
</style>
<g>
	<path id="frame" class="st0" d="M49.5,40.5V0H0v40.5H49.5z M45,36H4.5V4.5H45V36z"/>
	<path id="grid" class="st0" d="M36,18v-4.5h4.5V18H36z M22.5,31.5H27V27h-4.5V31.5z M18,22.5V18h4.5v4.5H27V18h4.5v-4.5H27V9h-4.5
		v4.5H18V9h-4.5v4.5H9V18h4.5v4.5H9V27h4.5v4.5H18V27h4.5v-4.5H18z M31.5,18v4.5H27V27h4.5v4.5H36V27h4.5v-4.5H36V18H31.5z M36,9
		h-4.5v4.5H36V9z"/>
	<path id="spots" class="st1" d="M36,13.5V18h-4.5v-4.5H36z M18,18v4.5h4.5V18H18z M22.5,27H27v-4.5h-4.5V27z M9,13.5h4.5V9H9V13.5z
		"/>
</g>
</svg>
