<svg width="48" height="48" viewBox="0 0 48 48" fill="none" xmlns="http://www.w3.org/2000/svg">
<g clip-path="url(#clip0_15104_179966)">
<path d="M24 0.874286V0.857143L0.857117 24L24 47.1429L47.1428 24L24 0.874286Z" fill="white"/>
<path d="M24 38.2971V38.28L19.2343 43.0457L24 47.8114L28.7657 43.0457L24 38.2971Z" fill="#3869F6"/>
<path d="M28.7657 33.5314L28.7486 33.5143L24 38.28L28.7657 43.0457L33.5314 38.2971L28.7657 33.5314Z" fill="#3E51EE"/>
<path d="M33.5315 28.7657L33.5143 28.7486L28.7486 33.5143L33.5315 38.2971L38.2972 33.5314L33.5315 28.7657Z" fill="#6100C9"/>
<path d="M38.2971 24H38.28L33.5143 28.7486L38.2971 33.5314L43.0457 28.7657L38.2971 24Z" fill="#7102B8"/>
<path d="M43.0457 19.2514V19.2343L38.28 24L43.0457 28.7657L47.8115 24L43.0457 19.2514Z" fill="#8204A7"/>
<path d="M19.2514 33.5314L19.2343 33.5143L14.4686 38.28L19.2514 43.0457L24 38.2971L19.2514 33.5314Z" fill="#463AE6"/>
<path d="M14.4857 28.7657L14.4686 28.7486L9.70288 33.5143L14.4857 38.2971L19.2515 33.5314L14.4857 28.7657Z" fill="#4E23DE"/>
<path d="M9.72 24H9.70286L4.95428 28.7486L9.72 33.5314L14.4857 28.7657L9.72 24Z" fill="#6901C0"/>
<path d="M14.4857 19.2514L14.4686 19.2343L17.8114 15.9086L19.2514 24L14.4857 19.2514Z" fill="#BB0A6A"/>
<path d="M4.95431 19.2514V19.2343L0.188599 24L4.95431 28.7657L9.72003 24L4.95431 19.2514Z" fill="#7902AF"/>
<path d="M14.4857 9.72L14.4686 9.70286L9.70288 14.4686L14.4857 19.2514L17.8115 15.9086L17.1943 12.4286L14.4857 9.72Z" fill="#A30784"/>
<path d="M24 0.188572L19.2343 4.95429L24 9.72L28.7657 4.95429L24 0.188572Z" fill="#E50E40"/>
<path d="M9.73714 14.4857H9.72L4.95428 19.2514L7.68 21.9771H11.76L14.4857 19.2514L9.73714 14.4857Z" fill="#A30784"/>
<path d="M19.2343 4.95428L19.2171 4.93714L14.4686 9.70286L17.1943 12.4286H21.2743L24 9.70286L19.2343 4.95428Z" fill="#C40A62"/>
<path d="M33.5143 19.2514V19.2343L30.1886 15.9086L28.7486 24L33.5143 19.2514Z" fill="#A30784"/>
<path d="M33.5143 9.72V9.70286L38.28 14.4686L33.5143 19.2514L30.1886 15.9086L30.8057 12.4286L33.5143 9.72Z" fill="#AB087C"/>
<path d="M28.7486 4.95428L28.7657 4.93714L33.5314 9.70286L30.8057 12.4286H26.7257L24 9.70286L28.7486 4.95428Z" fill="#D40C50"/>
<path d="M38.2971 14.4857L38.28 14.4686L33.5143 19.2343L36.24 21.96H40.32L43.0457 19.2514L38.2971 14.4857Z" fill="#920595"/>
</g>
<defs>
<clipPath id="clip0_15104_179966">
<rect width="48" height="48" fill="white"/>
</clipPath>
</defs>
</svg>
